<?xml version="1.0" encoding="utf-8"?>
<!-- Generator: Adobe Illustrator 17.1.0, SVG Export Plug-In . SVG Version: 6.00 Build 0)  -->
<!DOCTYPE svg PUBLIC "-//W3C//DTD SVG 1.1//EN" "http://www.w3.org/Graphics/SVG/1.1/DTD/svg11.dtd">
<svg version="1.1" id="Ebene_1" xmlns="http://www.w3.org/2000/svg" xmlns:xlink="http://www.w3.org/1999/xlink" x="0px" y="0px"
	 viewBox="0 0 48 48" enable-background="new 0 0 48 48" xml:space="preserve">
<path fill-rule="evenodd" clip-rule="evenodd" fill="#E1E4EB" d="M0,0h48v48H0V0z"/>
<path fill-rule="evenodd" clip-rule="evenodd" fill="#ACB2BF" d="M35,33.5C35,33.5,35,33.5,35,33.5c-1.1-0.9-2.3-1.7-3.6-2.2
	c2.5-2.1,4.1-5.3,4.1-8.8c0-2.2-0.6-4.2-1.6-5.9c0.4-0.1,0.8-0.1,1.2-0.1c4.7,0,8.5,3.8,8.5,8.5C43.5,29.7,39.7,33.5,35,33.5z
	 M24,32c-5.2,0-9.5-4.3-9.5-9.5c0-5.2,4.3-9.5,9.5-9.5s9.5,4.3,9.5,9.5C33.5,27.7,29.2,32,24,32z M16.6,31.3
	c-1.3,0.5-2.5,1.2-3.5,2.2c0,0-0.1,0-0.1,0c-4.7,0-8.5-3.8-8.5-8.5c0-4.7,3.8-8.5,8.5-8.5c0.4,0,0.8,0,1.2,0.1
	c-1,1.7-1.6,3.7-1.6,5.9C12.5,26,14.1,29.2,16.6,31.3z M7.7,34.6c1,0.6,2.2,1,3.4,1.2c-1.6,2.3-2.5,5.1-2.6,8.2l0,4H2v-4
	C2.1,39.8,4.4,36.2,7.7,34.6z M18.4,32.5C20,33.5,21.9,34,24,34s4-0.5,5.6-1.5c4.5,1.4,7.8,6,7.9,11.5v4H10.5v-4
	C10.5,38.5,13.9,33.9,18.4,32.5z M39.5,44c0-3.1-1-5.9-2.6-8.2c1.2-0.2,2.4-0.6,3.4-1.2c3.3,1.6,5.6,5.2,5.7,9.4v4h-6.5L39.5,44z"/>
</svg>
