<?xml version="1.0" encoding="utf-8"?>
<!-- Generator: Adobe Illustrator 17.1.0, SVG Export Plug-In . SVG Version: 6.00 Build 0)  -->
<!DOCTYPE svg PUBLIC "-//W3C//DTD SVG 1.1//EN" "http://www.w3.org/Graphics/SVG/1.1/DTD/svg11.dtd">
<svg version="1.1" id="Ebene_1" xmlns="http://www.w3.org/2000/svg" xmlns:xlink="http://www.w3.org/1999/xlink" x="0px" y="0px"
	 viewBox="0 0 283.5 283.5" enable-background="new 0 0 283.5 283.5" xml:space="preserve">
<path fill="#E1E4EB" d="M0,0h283.5v283.5H0V0z"/>
<path fill-rule="evenodd" clip-rule="evenodd" fill="#ACB2BF" d="M191.6,180.4C191.6,180.4,191.6,180.4,191.6,180.4l-50.1,50.1
	l-50-50.1c-27.7-27.7-27.7-72.5,0-100.1s72.5-27.6,100.1,0C219.2,107.9,219.2,152.7,191.6,180.4z M158,113.8c-9.1-9.1-23.9-9.1-33,0
	c-9.1,9.1-9.1,23.9,0,33c9.1,9.1,23.9,9.1,33,0C167.2,137.7,167.2,122.9,158,113.8z"/>
</svg>
