<svg xmlns="http://www.w3.org/2000/svg" xmlns:xlink="http://www.w3.org/1999/xlink" preserveAspectRatio="xMidYMid" width="48" height="48" viewBox="0 0 48 48">
  <defs>
    <style>

      .cls-3 {
        fill: #e1e4eb;
      }

      .cls-4 {
        fill: #acb2bf;
      }
    </style>
  </defs>
  <g id="contactsvg">
    <rect id="rect-1" class="cls-3" width="48" height="48"/>
    <path d="M6.000,48.000 C6.000,48.000 6.000,44.000 6.000,44.000 C6.000,44.000 6.014,43.118 6.238,41.810 C6.404,40.795 7.822,39.439 13.837,37.228 C19.763,35.060 19.397,35.359 19.397,31.343 C19.397,28.747 18.079,30.435 17.237,25.511 C16.905,23.567 16.639,24.859 15.930,21.751 C15.554,20.117 16.185,19.999 16.108,19.219 C16.019,18.440 15.941,17.745 15.808,16.154 C15.642,14.167 17.459,8.987 24.017,8.987 C30.574,8.987 32.402,14.178 32.225,16.154 C32.092,17.745 32.014,18.440 31.937,19.219 C31.859,19.999 32.491,20.127 32.114,21.751 C31.416,24.859 31.150,23.567 30.818,25.511 C29.976,30.435 28.647,28.747 28.647,31.343 C28.647,34.793 28.381,35.209 32.070,36.470 C32.679,36.683 33.377,36.929 34.208,37.228 C40.223,39.439 41.641,40.795 41.807,41.810 C42.019,43.119 42.000,44.000 42.000,44.000 C42.000,44.000 42.000,48.000 42.000,48.000 C42.000,48.000 6.000,48.000 6.000,48.000 Z" id="path-1" class="cls-4" fill-rule="evenodd"/>
  </g>
</svg>
