<svg xmlns="http://www.w3.org/2000/svg" xmlns:xlink="http://www.w3.org/1999/xlink" preserveAspectRatio="xMidYMid" width="48" height="48" viewBox="0 0 48 48">
  <defs>
    <style>

      .cls-3 {
        fill: #e1e4eb;
      }

      .cls-4 {
        fill: #acb2bf;
      }
    </style>
  </defs>
  <g id="groupsvg">
    <rect id="rect-1" class="cls-3" width="48" height="48"/>
    <path d="M41.699,48.000 C41.680,46.256 41.633,41.417 41.538,40.809 C41.405,39.918 41.528,38.033 36.353,36.091 C35.630,35.819 35.031,35.604 34.517,35.426 C36.229,34.628 35.934,34.103 35.934,32.846 C35.934,31.093 35.059,31.730 34.498,28.373 C34.279,27.041 34.098,27.932 33.632,25.812 C33.385,24.706 33.794,24.621 33.746,24.096 C33.699,23.571 33.642,23.102 33.556,22.014 C33.442,20.664 34.660,17.137 39.017,17.137 C43.374,17.137 44.592,20.664 44.477,22.014 C44.382,23.093 44.335,23.571 44.287,24.096 C44.230,24.621 44.649,24.706 44.401,25.812 C43.935,27.932 43.754,27.050 43.536,28.373 C42.974,31.730 42.090,31.083 42.090,32.846 C42.090,35.576 41.852,34.985 45.790,36.457 C46.676,36.790 47.390,37.090 48.000,37.370 C48.000,37.370 48.000,48.000 48.000,48.000 C48.000,48.000 41.699,48.000 41.699,48.000 ZM30.750,36.120 C31.273,36.307 31.872,36.523 32.586,36.785 C37.752,38.727 38.969,39.918 39.112,40.809 C39.207,41.409 39.255,43.416 39.274,45.161 C39.292,46.652 39.293,47.937 39.293,48.000 C39.293,48.000 8.374,48.000 8.374,48.000 C8.374,47.872 8.376,41.932 8.565,40.809 C8.707,39.918 9.925,38.727 15.091,36.785 C20.180,34.882 19.866,35.144 19.866,31.618 C19.866,29.339 18.734,30.821 18.011,26.497 C17.726,24.790 17.498,25.925 16.889,23.196 C16.565,21.761 17.108,21.658 17.041,20.973 C16.965,20.288 16.898,19.679 16.784,18.281 C16.641,16.537 18.202,11.988 23.834,11.988 C29.465,11.988 31.035,16.546 30.883,18.281 C30.769,19.679 30.702,20.288 30.636,20.973 C30.569,21.658 31.111,21.770 30.788,23.196 C30.188,25.925 29.960,24.790 29.675,26.497 C28.952,30.821 27.810,29.339 27.810,31.618 C27.810,34.647 27.582,35.013 30.750,36.120 ZM14.254,24.096 C14.206,24.621 14.615,24.706 14.368,25.812 C13.902,27.932 13.721,27.041 13.502,28.373 C12.941,31.730 12.066,31.093 12.066,32.846 C12.066,34.103 11.771,34.628 13.483,35.426 C12.969,35.604 12.370,35.819 11.647,36.091 C6.472,38.033 6.595,39.918 6.462,40.809 C6.367,41.417 6.320,46.256 6.301,48.000 C6.301,48.000 -0.000,48.000 -0.000,48.000 C-0.000,48.000 -0.000,37.370 -0.000,37.370 C0.610,37.090 1.324,36.790 2.210,36.457 C6.148,34.985 5.910,35.576 5.910,32.846 C5.910,31.083 5.026,31.730 4.464,28.373 C4.246,27.050 4.065,27.932 3.599,25.812 C3.351,24.706 3.770,24.621 3.713,24.096 C3.665,23.571 3.618,23.093 3.523,22.014 C3.408,20.664 4.626,17.137 8.983,17.137 C13.340,17.137 14.558,20.664 14.444,22.014 C14.358,23.102 14.301,23.571 14.254,24.096 Z" id="path-1" class="cls-4" fill-rule="evenodd"/>
  </g>
</svg>
