<svg xmlns="http://www.w3.org/2000/svg" xmlns:xlink="http://www.w3.org/1999/xlink" preserveAspectRatio="xMidYMid" width="48" height="48" viewBox="0 0 48 48">
  <defs>
    <style>

      .cls-3 {
        fill: #e1e4eb;
      }

      .cls-4 {
        fill: #acb2bf;
      }
    </style>
  </defs>
  <g id="worldsvg">
    <rect id="rect-1" class="cls-3" width="48" height="48"/>
    <path d="M24.000,4.999 C23.991,4.999 23.991,4.999 23.982,4.999 C23.982,4.999 23.982,4.999 23.973,4.999 C23.963,4.999 23.954,4.999 23.954,4.999 C13.476,5.026 4.999,13.522 4.999,24.000 C4.999,34.478 13.476,42.974 23.954,43.001 C23.963,43.001 23.973,43.001 23.973,43.001 C23.973,43.001 23.982,43.001 23.982,43.001 C23.991,43.001 23.991,43.001 24.000,43.001 C34.496,43.001 43.001,34.496 43.001,24.000 C43.001,13.504 34.496,4.999 24.000,4.999 ZM24.758,16.372 C26.777,16.317 28.732,16.052 30.623,15.596 C31.189,17.834 31.546,20.419 31.601,23.251 C31.601,23.251 24.758,23.251 24.758,23.251 C24.758,23.251 24.758,16.372 24.758,16.372 C24.758,16.372 24.758,16.372 24.758,16.372 ZM24.758,14.847 C24.758,14.847 24.758,6.643 24.758,6.643 C26.805,7.209 28.887,9.941 30.203,14.134 C28.449,14.554 26.631,14.792 24.758,14.847 ZM23.242,6.625 C23.242,6.625 23.242,14.856 23.242,14.856 C21.351,14.801 19.515,14.554 17.752,14.125 C19.085,9.904 21.177,7.155 23.242,6.625 ZM23.242,16.372 C23.242,16.372 23.242,23.242 23.242,23.242 C23.242,23.242 16.354,23.242 16.354,23.242 C16.409,20.410 16.765,17.825 17.331,15.586 C19.231,16.043 21.214,16.317 23.242,16.372 ZM14.819,23.242 C14.819,23.242 6.543,23.242 6.543,23.242 C6.707,19.332 8.169,15.751 10.498,12.919 C12.188,13.851 13.988,14.618 15.870,15.185 C15.248,17.605 14.883,20.337 14.819,23.242 ZM14.819,24.758 C14.874,27.654 15.239,30.395 15.861,32.815 C13.979,33.391 12.188,34.149 10.489,35.081 C8.160,32.249 6.707,28.668 6.533,24.758 C6.533,24.758 14.819,24.758 14.819,24.758 ZM16.354,24.758 C16.354,24.758 23.242,24.758 23.242,24.758 C23.242,24.758 23.242,31.619 23.242,31.619 C21.214,31.674 19.231,31.948 17.331,32.414 C16.765,30.175 16.409,27.590 16.354,24.758 ZM23.242,33.144 C23.242,33.144 23.242,41.384 23.242,41.384 C21.177,40.845 19.085,38.105 17.752,33.884 C19.515,33.446 21.351,33.199 23.242,33.144 ZM24.758,41.357 C24.758,41.357 24.758,33.135 24.758,33.135 C26.631,33.190 28.449,33.437 30.212,33.857 C28.887,38.059 26.814,40.791 24.758,41.357 ZM24.758,31.619 C24.758,31.619 24.758,24.758 24.758,24.758 C24.758,24.758 31.601,24.758 31.601,24.758 C31.546,27.581 31.189,30.166 30.623,32.404 C28.732,31.948 26.777,31.674 24.758,31.619 ZM33.126,24.758 C33.126,24.758 41.457,24.758 41.457,24.758 C41.293,28.668 39.831,32.240 37.502,35.081 C35.794,34.140 33.985,33.373 32.085,32.797 C32.706,30.376 33.071,27.654 33.126,24.758 ZM33.126,23.242 C33.071,20.346 32.706,17.614 32.094,15.194 C33.994,14.618 35.803,13.851 37.502,12.919 C39.831,15.751 41.293,19.332 41.457,23.251 C41.457,23.251 33.126,23.251 33.126,23.251 C33.126,23.251 33.126,23.242 33.126,23.242 ZM36.460,11.750 C34.944,12.554 33.354,13.220 31.683,13.723 C30.797,10.864 29.545,8.534 28.074,6.999 C31.308,7.776 34.195,9.457 36.460,11.750 ZM19.871,7.018 C18.400,8.543 17.158,10.873 16.281,13.714 C14.627,13.211 13.047,12.554 11.549,11.750 C13.787,9.466 16.655,7.794 19.871,7.018 ZM11.540,36.241 C13.038,35.437 14.627,34.780 16.272,34.277 C17.158,37.127 18.400,39.448 19.871,40.982 C16.655,40.206 13.787,38.534 11.540,36.241 ZM28.074,41.001 C29.554,39.466 30.797,37.136 31.692,34.268 C33.364,34.770 34.953,35.437 36.470,36.241 C34.204,38.543 31.308,40.224 28.074,41.001 Z" id="path-1" class="cls-4" fill-rule="evenodd"/>
  </g>
</svg>
