<?xml version="1.0" encoding="utf-8"?>
<!-- Generator: Adobe Illustrator 17.1.0, SVG Export Plug-In . SVG Version: 6.00 Build 0)  -->
<!DOCTYPE svg PUBLIC "-//W3C//DTD SVG 1.1//EN" "http://www.w3.org/Graphics/SVG/1.1/DTD/svg11.dtd">
<svg version="1.1" id="Ebene_1" xmlns="http://www.w3.org/2000/svg" xmlns:xlink="http://www.w3.org/1999/xlink" x="0px" y="0px"
	 viewBox="0 0 51 42" enable-background="new 0 0 51 42" xml:space="preserve">
<path fill-rule="evenodd" clip-rule="evenodd" d="M51,34C51,34,51,34,51,34c0,1.7-5.4,3-12,3c-2.2,0-4.3-0.2-6.1-0.4
	C33,37,33,37.5,33,38h0c0,0,0,0,0,0c0,2.2-7.4,4-16.5,4S0,40.2,0,38c0,0,0,0,0,0h0c0.1-6.4,3.3-10.8,8-12.7c2.6,1.7,5.7,2.8,9,2.8
	c3.2,0,6.1-0.9,8.6-2.5c1.2,0.5,2.2,1.2,3.1,2.1c1-1.5,2.3-2.7,3.8-3.5c1.9,1.2,4.1,1.9,6.5,1.9c2.4,0,4.6-0.7,6.4-1.9
	C48.7,25.7,50.9,29.1,51,34L51,34z M25.5,27.8C23,29.2,20.1,30,17,30c-3.3,0-6.4-0.9-9-2.4C4.4,29.4,2.1,33,2,38h0c0,0,0,0,0,0
	c0,1.1,6.5,2,14.5,2S31,39.1,31,38c0,0,0,0,0,0h0C30.9,33.2,28.8,29.8,25.5,27.8z M39,23c-4.4,0-8-3.6-8-8c0-4.4,3.6-8,8-8
	s8,3.6,8,8C47,19.4,43.4,23,39,23z M17,24c-6.6,0-12-5.4-12-12S10.4,0,17,0s12,5.4,12,12S23.6,24,17,24z M17,2C11.5,2,7,6.5,7,12
	s4.5,10,10,10s10-4.5,10-10S22.5,2,17,2z"/>
</svg>
