<?xml version="1.0" encoding="utf-8"?>
<!-- Generator: Adobe Illustrator 17.1.0, SVG Export Plug-In . SVG Version: 6.00 Build 0)  -->
<!DOCTYPE svg PUBLIC "-//W3C//DTD SVG 1.1//EN" "http://www.w3.org/Graphics/SVG/1.1/DTD/svg11.dtd">
<svg version="1.1" id="Ebene_1" xmlns="http://www.w3.org/2000/svg" xmlns:xlink="http://www.w3.org/1999/xlink" x="0px" y="0px"
	 viewBox="0 0 27 27" enable-background="new 0 0 27 27" xml:space="preserve">
<g>
	<g>
		<path fill-rule="evenodd" clip-rule="evenodd" d="M10.1,11.8L10.1,11.8l0,5.9c-0.4-0.3-0.9-0.4-1.5-0.2c-0.9,0.3-1.5,1.3-1.3,2.1
			c0.2,0.9,1.1,1.4,2,1.1c0.9-0.3,1.5-1.3,1.3-2.1c0,0,0,0,0,0h0v-6.9L18,9.8v5.7c-0.4-0.3-0.9-0.4-1.5-0.2
			c-0.9,0.3-1.5,1.3-1.3,2.1c0.2,0.9,1.1,1.4,2,1.1c0.7-0.2,1.2-0.9,1.3-1.6h0v-0.2c0,0,0,0,0,0v-7l0,0V6.2l-8.4,2.2V11.8z M13.5,0
			C6,0,0,6,0,13.5C0,21,6,27,13.5,27S27,21,27,13.5C27,6,21,0,13.5,0z M13.5,26.4c-7.1,0-12.9-5.8-12.9-12.9S6.4,0.6,13.5,0.6
			s12.9,5.8,12.9,12.9S20.6,26.4,13.5,26.4z"/>
	</g>
</g>
</svg>
