<?xml version="1.0" encoding="utf-8"?>
<!-- Generator: Adobe Illustrator 17.1.0, SVG Export Plug-In . SVG Version: 6.00 Build 0)  -->
<!DOCTYPE svg PUBLIC "-//W3C//DTD SVG 1.1//EN" "http://www.w3.org/Graphics/SVG/1.1/DTD/svg11.dtd">
<svg version="1.1" id="Ebene_1" xmlns="http://www.w3.org/2000/svg" xmlns:xlink="http://www.w3.org/1999/xlink" x="0px" y="0px"
	 viewBox="0 0 49.5 49.5" enable-background="new 0 0 49.5 49.5" xml:space="preserve">
<g>
	<g>
		<path fill-rule="evenodd" clip-rule="evenodd" d="M20.3,14.6H18c-0.6,0-1.1,0.5-1.1,1.1v18c0,0.6,0.5,1.1,1.1,1.1h2.3
			c0.6,0,1.1-0.5,1.1-1.1v-18C21.4,15.1,20.9,14.6,20.3,14.6z M24.8,0C11.1,0,0,11.1,0,24.7c0,13.7,11.1,24.8,24.8,24.8
			c13.7,0,24.8-11.1,24.8-24.8C49.5,11.1,38.4,0,24.8,0z M24.8,48.4c-13,0-23.6-10.6-23.6-23.6c0-13,10.6-23.6,23.6-23.6
			c13,0,23.6,10.6,23.6,23.6C48.4,37.8,37.8,48.4,24.8,48.4z M31.5,14.6h-2.3c-0.6,0-1.1,0.5-1.1,1.1v18c0,0.6,0.5,1.1,1.1,1.1h2.3
			c0.6,0,1.1-0.5,1.1-1.1v-18C32.6,15.1,32.1,14.6,31.5,14.6z"/>
	</g>
</g>
</svg>
