<?xml version="1.0" encoding="utf-8"?>
<!-- Generator: Adobe Illustrator 17.1.0, SVG Export Plug-In . SVG Version: 6.00 Build 0)  -->
<!DOCTYPE svg PUBLIC "-//W3C//DTD SVG 1.1//EN" "http://www.w3.org/Graphics/SVG/1.1/DTD/svg11.dtd">
<svg version="1.1" id="Ebene_1" xmlns="http://www.w3.org/2000/svg" xmlns:xlink="http://www.w3.org/1999/xlink" x="0px" y="0px"
	 viewBox="0 0 18.6 15.7" enable-background="new 0 0 18.6 15.7" xml:space="preserve">
<path fill-rule="evenodd" clip-rule="evenodd" d="M14.1,4.5h-1.2l-8.6,8.6c-0.2,0.3-0.5,0.4-0.9,0.4H1.1C0.5,13.5,0,13,0,12.4
	s0.5-1.1,1.1-1.1h1.8l8.6-8.6c0.1-0.2,0.3-0.3,0.5-0.3c0,0,0.1,0,0.1,0c0.1,0,0.1,0,0.2,0c0.1,0,0.1,0,0.2,0h1.6V0l4.5,3.4l-4.5,3.4
	V4.5z M2.9,4.5H1.1C0.5,4.5,0,4,0,3.4s0.5-1.1,1.1-1.1H3c0.3-0.1,0.7,0,1,0.2c0,0,0,0,0.1,0c0,0,0.1,0,0.1,0l0.1,0.1c0,0,0,0,0,0
	l3.1,3.1L5.7,7.3L2.9,4.5z M12.8,11.2h1.2V9l4.5,3.4l-4.5,3.4v-2.2h-1.3c-0.3,0.1-0.7,0-1-0.2c0,0,0,0-0.1,0c0,0-0.1,0-0.1,0
	l-0.1-0.1c0,0,0,0,0,0l-3.1-3.1l1.6-1.6L12.8,11.2z"/>
</svg>
