<?xml version="1.0" encoding="utf-8"?>
<!-- Generator: Adobe Illustrator 17.1.0, SVG Export Plug-In . SVG Version: 6.00 Build 0)  -->
<!DOCTYPE svg PUBLIC "-//W3C//DTD SVG 1.1//EN" "http://www.w3.org/Graphics/SVG/1.1/DTD/svg11.dtd">
<svg version="1.1" id="Ebene_1" xmlns="http://www.w3.org/2000/svg" xmlns:xlink="http://www.w3.org/1999/xlink" x="0px" y="0px"
	 viewBox="0 0 20.8 18.4" enable-background="new 0 0 20.8 18.4" xml:space="preserve">
<path fill-rule="evenodd" clip-rule="evenodd" d="M16.4,18.4L15.4,17c2.3-1.9,3.8-4.7,3.8-7.9c0-3.2-1.5-6-3.8-7.9L16.4,0
	c2.7,2.2,4.4,5.5,4.4,9.2C20.8,12.9,19.1,16.2,16.4,18.4z M14,15.3L12.9,14c1.4-1.1,2.3-2.9,2.3-4.8c0-1.9-0.9-3.7-2.3-4.8l1.1-1.3
	c1.8,1.4,2.9,3.6,2.9,6.1C16.9,11.6,15.7,13.9,14,15.3z M1.1,13.7c-0.6,0-1.1-0.5-1.1-1.1V5.8c0-0.6,0.5-1.1,1.1-1.1h4.3l4.7-3.9
	v16.9l-4.7-3.9H1.1z"/>
</svg>
