<?xml version="1.0" encoding="utf-8"?>
<!-- Generator: Adobe Illustrator 17.1.0, SVG Export Plug-In . SVG Version: 6.00 Build 0)  -->
<!DOCTYPE svg PUBLIC "-//W3C//DTD SVG 1.1//EN" "http://www.w3.org/Graphics/SVG/1.1/DTD/svg11.dtd">
<svg version="1.1" id="Ebene_1" xmlns="http://www.w3.org/2000/svg" xmlns:xlink="http://www.w3.org/1999/xlink" x="0px" y="0px"
	 viewBox="0 0 19.1 15.7" enable-background="new 0 0 19.1 15.7" xml:space="preserve">
<path fill-rule="evenodd" clip-rule="evenodd" d="M15.2,7.9c-2.2,0-3.9-1.8-3.9-3.9S13,0,15.2,0s3.9,1.8,3.9,3.9S17.4,7.9,15.2,7.9z
	 M15.8,1.7h-0.5c0,0.1-0.1,0.3-0.1,0.3c-0.1,0.1-0.2,0.2-0.3,0.2c-0.1,0.1-0.2,0.1-0.3,0.1c-0.1,0-0.3,0-0.4,0V3h1v3.2h0.7V1.7z
	 M6.2,3.4C4,3.4,2.2,5.1,2.2,7.3c0,0.2,0,0.4,0,0.5L0.5,9.7C0.2,8.9,0,8.1,0,7.3c0-3.4,2.8-6.2,6.2-6.2H11c-0.4,0.7-0.7,1.4-0.8,2.2
	H6.2z M6.7,11.2h5.1c1.6,0,2.9-0.9,3.6-2.3c0.9,0,1.8-0.3,2.6-0.8c-0.4,3-3,5.3-6.1,5.3H6.7v2.2l-5.1-3.4L6.7,9V11.2z"/>
</svg>
