<?xml version="1.0" encoding="utf-8"?>
<!-- Generator: Adobe Illustrator 17.1.0, SVG Export Plug-In . SVG Version: 6.00 Build 0)  -->
<!DOCTYPE svg PUBLIC "-//W3C//DTD SVG 1.1//EN" "http://www.w3.org/Graphics/SVG/1.1/DTD/svg11.dtd">
<svg version="1.1" id="Ebene_1" xmlns="http://www.w3.org/2000/svg" xmlns:xlink="http://www.w3.org/1999/xlink" x="0px" y="0px"
	 viewBox="0 0 13.5 13.5" enable-background="new 0 0 13.5 13.5" xml:space="preserve">
<g>
	<g>
		<path fill-rule="evenodd" clip-rule="evenodd" d="M1.1,0.2C0.5-0.2,0,0.2,0,0.8v12c0,0.6,0.6,0.9,1.1,0.6c0.6-0.4,9.3-5.6,9.8-6
			c0.5-0.3,0.5-1,0-1.3C10.1,5.7,1.5,0.4,1.1,0.2z M12.4,0c-0.6,0-1.1,0.5-1.1,1.1v11.2c0,0.6,0.5,1.1,1.1,1.1
			c0.6,0,1.1-0.5,1.1-1.1V1.1C13.5,0.5,13,0,12.4,0z"/>
	</g>
</g>
</svg>
