<?xml version="1.0" encoding="utf-8"?>
<!-- Generator: Adobe Illustrator 17.1.0, SVG Export Plug-In . SVG Version: 6.00 Build 0)  -->
<!DOCTYPE svg PUBLIC "-//W3C//DTD SVG 1.1//EN" "http://www.w3.org/Graphics/SVG/1.1/DTD/svg11.dtd">
<svg version="1.1" id="Ebene_1" xmlns="http://www.w3.org/2000/svg" xmlns:xlink="http://www.w3.org/1999/xlink" x="0px" y="0px"
	 viewBox="0 0 18 13.5" enable-background="new 0 0 18 13.5" xml:space="preserve">
<path fill-rule="evenodd" clip-rule="evenodd" d="M14.6,2.8h-2l-8.8,8.8c-0.1,0.1-0.1,0.1-0.2,0.1c-0.1,0-0.2,0-0.3,0H0.6
	c-0.3,0-0.6-0.3-0.6-0.6s0.3-0.6,0.6-0.6h2.6L12,1.9c0.1-0.1,0.2-0.2,0.4-0.2h2.3V0L18,2.2l-3.4,2.2V2.8z M3.2,2.8H0.6
	C0.3,2.8,0,2.6,0,2.2c0-0.3,0.3-0.6,0.6-0.6h2.8c0.1,0,0.2,0,0.3,0c0.1,0,0.1,0.1,0.2,0.1l3.4,3.4L6.4,6L3.2,2.8z M12.6,10.7h2V9
	l3.4,2.2l-3.4,2.2v-1.7h-2.3c-0.2,0-0.3-0.1-0.4-0.2L8.6,8.3l0.8-0.8L12.6,10.7z"/>
</svg>
