<?xml version="1.0" encoding="utf-8"?>
<!-- Generator: Adobe Illustrator 17.1.0, SVG Export Plug-In . SVG Version: 6.00 Build 0)  -->
<!DOCTYPE svg PUBLIC "-//W3C//DTD SVG 1.1//EN" "http://www.w3.org/Graphics/SVG/1.1/DTD/svg11.dtd">
<svg version="1.1" id="Ebene_1" xmlns="http://www.w3.org/2000/svg" xmlns:xlink="http://www.w3.org/1999/xlink" x="0px" y="0px"
	 viewBox="0 0 18 16.9" enable-background="new 0 0 18 16.9" xml:space="preserve">
<path fill-rule="evenodd" clip-rule="evenodd" d="M11.8,14.6H6.7v2.2l-5.1-3.4l5.1-3.4v2.3h5.1c2.2,0,3.9-1.8,3.9-3.9
	c0-0.2,0-0.3-0.1-0.5l1.8-1.8C17.8,6.8,18,7.6,18,8.4C18,11.9,15.2,14.6,11.8,14.6z M11.3,4.5H6.2C4,4.5,2.3,6.3,2.3,8.4
	c0,0.2,0,0.3,0.1,0.5l-1.8,1.8C0.2,10.1,0,9.3,0,8.4C0,5,2.8,2.2,6.2,2.2h5.1V0l5.1,3.4l-5.1,3.4V4.5z"/>
</svg>
