<?xml version="1.0" encoding="utf-8"?>
<!-- Generator: Adobe Illustrator 17.1.0, SVG Export Plug-In . SVG Version: 6.00 Build 0)  -->
<!DOCTYPE svg PUBLIC "-//W3C//DTD SVG 1.1//EN" "http://www.w3.org/Graphics/SVG/1.1/DTD/svg11.dtd">
<svg version="1.1" id="Ebene_1" xmlns="http://www.w3.org/2000/svg" xmlns:xlink="http://www.w3.org/1999/xlink" x="0px" y="0px"
	 viewBox="0 76.6 283.5 130.2" enable-background="new 0 76.6 283.5 130.2" xml:space="preserve">
<path d="M229.9,206.8H65.1C29.4,206.8,0,177.4,0,141.7s29.4-65.1,65.1-65.1H189v11.5H65.1c-29.4,0-53.5,24.1-53.5,53.5
	s24.1,53.5,53.5,53.5H231c23.1,0,40.9-18.9,40.9-40.9S253,113.4,231,113.4h-94.5c-16.8,0-29.4,13.6-29.4,29.4s12.6,28.3,28.3,28.3
	H189v11.5h-53.5c-22,0-40.9-17.8-40.9-40.9s18.9-40.9,40.9-40.9h94.5c29.4,0,53.5,24.1,53.5,53.5
	C283.5,182.7,259.3,206.8,229.9,206.8z"/>
</svg>
