<?xml version="1.0" encoding="utf-8"?>
<!-- Generator: Adobe Illustrator 17.1.0, SVG Export Plug-In . SVG Version: 6.00 Build 0)  -->
<!DOCTYPE svg PUBLIC "-//W3C//DTD SVG 1.1//EN" "http://www.w3.org/Graphics/SVG/1.1/DTD/svg11.dtd">
<svg version="1.1" id="Ebene_1" xmlns="http://www.w3.org/2000/svg" xmlns:xlink="http://www.w3.org/1999/xlink" x="0px" y="0px"
	 viewBox="0 0 50.4 50.4" enable-background="new 0 0 50.4 50.4" xml:space="preserve">
<path fill-rule="evenodd" clip-rule="evenodd" d="M25.2,50.4C11.3,50.4,0,39.1,0,25.2S11.3,0,25.2,0c13.9,0,25.2,11.3,25.2,25.2
	S39.1,50.4,25.2,50.4z M25.3,2.3c-12.7,0-23,10.3-23,23c0,7,3.1,13.3,8.1,17.5c0.5-5.5,3.6-8.4,8.2-9.2c2,1.1,4.3,1.7,6.7,1.7
	s4.7-0.6,6.7-1.7c4.6,0.9,7.7,3.8,8.2,9.2c4.9-4.2,8.1-10.5,8.1-17.5C48.3,12.6,38,2.3,25.3,2.3z M25.3,32.4c-6.1,0-11-4.9-11-11
	s4.9-11,11-11s11,4.9,11,11S31.3,32.4,25.3,32.4z"/>
</svg>
