<?xml version="1.0" encoding="utf-8"?>
<!-- Generator: Adobe Illustrator 17.1.0, SVG Export Plug-In . SVG Version: 6.00 Build 0)  -->
<!DOCTYPE svg PUBLIC "-//W3C//DTD SVG 1.1//EN" "http://www.w3.org/Graphics/SVG/1.1/DTD/svg11.dtd">
<svg version="1.1" id="Ebene_1" xmlns="http://www.w3.org/2000/svg" xmlns:xlink="http://www.w3.org/1999/xlink" x="0px" y="0px"
	 viewBox="0 0 56 56" enable-background="new 0 0 56 56" xml:space="preserve">
<path fill-rule="evenodd" clip-rule="evenodd" d="M53.5,32l-6.4,1.7c-0.4,1.3-0.9,2.5-1.6,3.7l3.3,5.8c1,1,0.3,3.3-0.7,4.2l-0.7,0.7
	c-1,1-3.3,1.7-4.2,0.7l-5.7-3.3c-1.2,0.6-2.4,1.2-3.7,1.6L32,53.5c0,1.4-2.1,2.5-3.5,2.5h-1c-1.4,0-3.5-1.1-3.5-2.5l-1.7-6.3
	c-1.3-0.4-2.5-0.9-3.7-1.6l-5.7,3.3c-1,1-3.3,0.3-4.2-0.7l-0.7-0.7c-1-1-1.7-3.3-0.7-4.2l3.3-5.8c-0.6-1.2-1.2-2.4-1.6-3.7L2.5,32
	C1.1,32,0,29.9,0,28.5v-1C0,26.1,1.1,24,2.5,24l6.4-1.7c0.4-1.3,0.9-2.5,1.6-3.7l-3.3-5.8c-1-1-0.3-3.3,0.7-4.2l0.7-0.7
	c1-1,3.3-1.7,4.2-0.7l5.7,3.3c1.2-0.6,2.4-1.2,3.7-1.6L24,2.5C24,1.1,26.1,0,27.5,0h1C29.9,0,32,1.1,32,2.5l1.7,6.3
	c1.3,0.4,2.5,0.9,3.7,1.6l5.7-3.3c1-1,3.3-0.3,4.2,0.7l0.7,0.7c1,1,1.7,3.3,0.7,4.2l-3.3,5.8c0.6,1.2,1.2,2.4,1.6,3.7l6.4,1.7
	c1.4,0,2.5,2.1,2.5,3.5v1C56,29.9,54.9,32,53.5,32z M54,27c0-0.6-0.4-1-1-1l-7.5-2.3c-0.4-1.8-1.2-3.5-2.1-5.1l3.7-6.9
	c0.4-0.4,0.4-1,0-1.4l-1.4-1.4c-0.4-0.4-1-0.4-1.4,0l-6.9,3.7c-1.6-0.9-3.3-1.7-5.1-2.1L30,3c0-0.6-0.4-1-1-1h-2c-0.6,0-1,0.4-1,1
	l-2.3,7.5c-1.8,0.4-3.5,1.2-5.1,2.1l-6.9-3.7c-0.4-0.4-1-0.4-1.4,0l-1.4,1.4c-0.4,0.4-0.4,1,0,1.4l3.7,6.9c-0.9,1.6-1.7,3.3-2.1,5.1
	L3,26c-0.6,0-1,0.4-1,1v2c0,0.6,0.4,1,1,1l7.5,2.3c0.4,1.8,1.2,3.5,2.1,5.1l-3.7,6.9c-0.4,0.4-0.4,1,0,1.4l1.4,1.4
	c0.4,0.4,1,0.4,1.4,0l6.9-3.7c1.6,0.9,3.3,1.7,5.1,2.1L26,53c0,0.6,0.4,1,1,1h2c0.6,0,1-0.4,1-1l2.3-7.5c1.8-0.4,3.5-1.2,5.1-2.1
	l6.9,3.7c0.4,0.4,1,0.4,1.4,0l1.4-1.4c0.4-0.4,0.4-1,0-1.4l-3.7-6.9c0.9-1.6,1.7-3.3,2.1-5.1L53,30c0.6,0,1-0.4,1-1V27z M28,42
	c-7.7,0-14-6.3-14-14s6.3-14,14-14s14,6.3,14,14S35.7,42,28,42z M28,16c-6.6,0-12,5.4-12,12c0,6.6,5.4,12,12,12c6.6,0,12-5.4,12-12
	C40,21.4,34.6,16,28,16z M28,38c-5.5,0-10-4.5-10-10s4.5-10,10-10c5.5,0,10,4.5,10,10S33.5,38,28,38z M28,20c-4.4,0-8,3.6-8,8
	s3.6,8,8,8s8-3.6,8-8S32.4,20,28,20z"/>
</svg>
