<?xml version="1.0" encoding="utf-8"?>
<!-- Generator: Adobe Illustrator 17.1.0, SVG Export Plug-In . SVG Version: 6.00 Build 0)  -->
<!DOCTYPE svg PUBLIC "-//W3C//DTD SVG 1.1//EN" "http://www.w3.org/Graphics/SVG/1.1/DTD/svg11.dtd">
<svg version="1.1" id="Ebene_1" xmlns="http://www.w3.org/2000/svg" xmlns:xlink="http://www.w3.org/1999/xlink" x="0px" y="0px"
	 viewBox="0 0 55.6 51.4" enable-background="new 0 0 55.6 51.4" xml:space="preserve">
<g>
	<path d="M29.8,7.5c0.4-0.4,0.4-1,0-1.4s-1-0.4-1.4,0L3.5,30.9l1.4,1.4L29.8,7.5z"/>
	<path d="M53,2.6c-3.5-3.5-9.2-3.5-12.7,0L12.1,30.8c0,0,0,0,0,0c-2.3,2.3-2.3,6.1,0,8.5c2.3,2.3,6.1,2.3,8.5,0c0,0,0,0,0,0
		l20.5-20.5c0.4-0.4,0.4-1,0-1.4s-1-0.4-1.4,0L19.2,37.8c-1.6,1.6-4.1,1.6-5.7,0c-1.6-1.6-1.6-4.1,0-5.7L41.7,4.1
		c2.7-2.7,7.2-2.7,9.9,0c2.7,2.7,2.7,7.2,0,9.9L19.1,46.5c-3.9,3.9-10.2,3.9-14.1,0C1,42.6,1,36.2,4.9,32.3l-1.4-1.4
		c-4.7,4.7-4.7,12.3,0,17c4.7,4.7,12.3,4.7,17,0L53,15.4C56.5,11.8,56.5,6.2,53,2.6z"/>
</g>
</svg>
