<?xml version="1.0" encoding="utf-8"?>
<!-- Generator: Adobe Illustrator 17.1.0, SVG Export Plug-In . SVG Version: 6.00 Build 0)  -->
<!DOCTYPE svg PUBLIC "-//W3C//DTD SVG 1.1//EN" "http://www.w3.org/Graphics/SVG/1.1/DTD/svg11.dtd">
<svg version="1.1" id="Ebene_1" xmlns="http://www.w3.org/2000/svg" xmlns:xlink="http://www.w3.org/1999/xlink" x="0px" y="0px"
	 viewBox="0 0 54.2 46" enable-background="new 0 0 54.2 46" xml:space="preserve">
<path fill-rule="evenodd" clip-rule="evenodd" d="M54.2,32.5c0,2.3-0.7,4.4-2,6.2l1.4,3.6c0.5,1.3-0.1,2-1.4,1.4l-4-1.6
	c-1.7,0.9-3.7,1.4-5.8,1.4c-2.8,0-5.3-0.9-7.3-2.4c-3.4,1.9-7.4,2.9-11.7,2.9c-2.6,0-5.2-0.4-7.5-1.2c0,0,0,0-0.1,0l-10.4,3
	c-2.6,0.7-4-0.8-3.3-3.3l2.2-7.8C1.6,31.1,0,26.8,0,22C0,9.8,10.5,0,23.5,0S47,9.8,47,22c0,0.1,0,0.2,0,0.3
	C51.2,24,54.2,27.9,54.2,32.5z M23.5,2C11.6,2,2,11,2,22c0,4.6,1.7,8.8,4.4,12.1l-2.3,8.2c-0.3,1.2,0.4,1.9,1.6,1.6l10.7-3.1
	c2.2,0.7,4.6,1.1,7.1,1.1c3.7,0,7.1-0.9,10.1-2.3c-1.8-1.9-2.8-4.4-2.8-7.2c0-6.1,5.3-11,11.8-11c0.9,0,1.7,0.1,2.5,0.3
	C44.8,10.8,35.3,2,23.5,2z"/>
</svg>
